<?xml version="1.0" encoding="UTF-8"?>
<svg id="Layer_1" data-name="Layer 1" xmlns="http://www.w3.org/2000/svg" viewBox="0 0 1037.52 585.32">
  <path d="m157.68,448.04c-2.68-.9-1.76-2.88-1.95-4.42-1.33-11.19-3.56-22.05-10.97-31.12-1.64-2-3.79-3.12-6.07-4.05-3.23-1.32-3.59-3.71-1.22-5.58,7.53-5.94,8.11-13.85,8.44-22.65.79-21.42,1.39-42.83,1.39-64.26,0-6.38-1.04-12.59-2-18.81-1.03-6.72-8.55-9.86-14.51-6.41-1.66.96-3.43,2.01-4.94.08-1.65-2.11-.1-3.4,1.4-5,4.62-4.95,10.48-8.57,14.66-13.97,6.31-8.13,9.83-17.25,10.11-27.59.03-1.23.24-2.45.45-3.67.1-.58.4-1.13.62-1.72,1.88.23,2.29,1.46,2.33,2.92.05,1.69.14,3.4.04,5.09-.52,9.47,2.67,17.08,10.71,22.52,2.96,3,4.11,4.53,4.54,7.74.34,2.54,1.19,4.77,3.88,6.47,9-7.35,19.41-13.18,26.76-22.73,1.15-1.5,1.27-3.07,1.27-4.77,0-4.32-.03-8.64.03-12.95.02-1.47.12-3.32,2.5-4.75,1,1,.97,8.41,1.1,12.4.29,8.4,5.84,13.37,11.34,18.43.78.72,1.84,1.12,2.72,1.75,6.64,4.8,8.87,2.8,14.09-.55,1.74-1.12,3.43-3.63,5.51-1.51,1.97,2,.58,4.28-1.13,6.07-2.98,3.11-5.7,6.56-9.03,9.24-5.56,4.47-6.66,10.44-6.67,16.9-.07,23.9.24,47.8-.16,71.7-.6,36.38-1.94,72.75-1.46,109.14.16,12.07,5.02,21.69,16.28,27.28,1.72.85,3.51,1.51,2.78,3.98-.68,2.3-2.63,1.58-4.23,1.76-12.14-.59-17.14-6.37-22.74-13.28-6.74-8.31-11.61-18.06-14.32-28.69-1.19-4.66-2.14-9.23-2.13-14.07.06-53.97-.07-107.93.18-161.9.03-6.27-2.86-10.14-7.48-12.65-4.15-2.26-8.51-.59-12.47,2.14-4.11,2.82-6.12,5.88-6.06,11.3.32,30.53.23,61.06.08,91.59-.02,4.97.86,9.32,3.73,13.46,3,4.34,2.57,4.98-2.25,6.77-3.87,1.44-6.86,3.81-8.22,7.98-2.28,7.02-4.72,13.94-4.7,21.51,0,3,.2,6.42-2.24,8.89Z"/>
  <path d="m115.68,442.18c-9.7,1.98-17.92-.21-25.02-5.45-9.36-6.91-17.29-15.25-21.66-26.4-2.44-6.21-1.86-11.17-1.85-17.93-.55-44.75-1-93-.5-144.5.4-36.84.5-74.36,1.43-111.19.09-3.39,1.19-5.55,4.14-7.51,12.71-8.47,24.44-18.18,35.42-28.81.93-.9,1.65-1.87,3.41-.73-.5,2.61-1.62,5.04-3.22,7.27-5.42,7.55-9.36,15.82-12.22,24.66-1.21,3.74-1.56,7.49-1.73,11.36-2.11,48.54-1.1,96.91-1.68,146.13-.44,37.6-.68,75.2-1.14,112.8-.18,14.54,5.39,26.25,16.4,35.54,2.25,1.89,5.46,2.02,8.23,4.76Z"/>
  <path d="m476.89,447.05c-.03-8.32-1.27-15.69-3.73-22.87-2.41-7.03-5.55-13.34-12.87-16.57-3.56-1.57-3.33-3.99-.95-6.59,1.57-1.7,3.07-3.46,4.68-5.13,2.14-2.22,3.24-4.82,3.27-7.9.28-25.6,2.05-51.17,1.19-76.78-.14-4.15-.59-8.3-1.01-12.44-.46-4.49-3.12-7.62-6.7-10.02-2.31-1.54-4.75-2.24-7.16,0-.55.51-1.28.88-1.99,1.16-1.44.57-3.07,1.23-4.24-.26-1.25-1.6-.07-2.98,1.06-4.01,3.07-2.81,6.33-5.42,9.37-8.25,6.66-6.18,12.14-13.15,13.88-22.37.63-3.32.97-6.71,1.42-10.06.28-2.08.19-4.24,1.38-6.17,1.74.61,1.82,2.03,1.91,3.4.11,1.69.22,3.39.23,5.08.08,8.55,2.15,16.05,9.98,21.04,2.52,2.1,4.52,5.1,4.94,7.6.65,2.51,1.28,5.13,4.31,6.99,6.31-3.82,12.47-8.38,18.14-13.44,10.05-8.98,9.82-9.16,9.96-23.91.02-2.3-1.34-5.31,2.37-7,.41,3.79.86,7.25,1.14,10.73.79,9.92,9.15,20.79,18.46,23.98,3.64,1.25,6.18-.6,8.71-2.8,1.95-1.7,3.92-5.28,6.8-2.52,3.02,2.88-.29,5.32-2.17,7.35-2.61,2.83-5.39,5.51-8.31,8.02-4.98,4.28-6.78,9.97-6.67,16.1,1.12,61.08-1.86,122.13-1.11,183.2.15,12.09,5.54,20.89,16.59,25.98,1.5.69,2.96,1.13,2.6,3.15-.39,2.2-2.1,2.1-3.86,2.36-11.37-1.7-18.24-6.03-24.13-13.98-10.14-13.69-15.53-28.86-15.38-46.38.45-52.59.05-105.18.31-157.77.03-6.47-3.64-9.65-7.94-12.44-3.91-2.54-7.73-.35-11.58,1.73-5.57,3.01-7.34,6.98-7.27,13.33.35,30.38.22,60.77.1,91.15-.02,4.67.82,8.71,3.78,12.47,2.78,3.53,2.29,5.48-1.95,6.96-4.89,1.71-7.27,5.13-9.15,9.62-3.05,7.25-4.06,14.8-4.5,22.53-.12,2.09.02,4.67-3.92,5.74Zm59.53,27.18c.38-.07.77-.14,1.15-.2.12-.55.32-1.1.35-1.66.58-13.08,1.5-26.16,1.64-39.25.51-47.77.76-95.54,1.1-143.31.04-5.8-3.15-9.71-9.32-11.33-.11.75-.3,1.49-.3,2.22-.01,57.95-.07,115.89.07,173.84.02,6.93,2.51,13.44,5.31,19.71Zm-55.18-67.54c3.01-3.14,6.53-5.1,6.51-9.91-.09-36.21-.05-72.41-.05-108.62,0-2.04-.4-3.89-1.56-5.67-1.69-2.59-3.88-4.43-6.85-3.02-2.62,1.25-1.61,4.02-1.06,6.2,1.69,6.77,2.28,13.62,2.26,20.59-.09,31.43-.05,62.86-.02,94.29,0,1.8-.41,3.66.77,6.13Z"/>
  <path d="m967.02,238.61c.97,6.08,1.47,11.95,2.92,17.58,1.38,5.36,2.28,11.19,8.2,14.24,6.56,3.38,15.25.31,18.19-6.72,2.99-7.15,4.73-14.61,5.76-22.25.29-2.13-.39-4.55,3.06-3.06-.69,4.65-.65,8.88,0,13-.08,2.33,1.29,4.21,2.85,5.92,3.64,3.98,7.11,8.12,10.67,12.17,3.67,4.18,7.88,4.06,11.47-.09,4.79-5.54,4-5,6.61-6.27,1.49,1.64.44,3.04-.42,4.49-3.24,5.48-7.56,10.12-11.76,14.82-2.41,2.69-3.57,5.6-3.67,9.16-.88,31.45-1.15,62.9-.07,94.35.18,5.25,3.69,7.96,6.95,10.82,1.81,1.58,4.24-.93,5.36-2.37,1-1,1-2,3.82-4.36,1.18,2.46.34,4.39-1.25,6.26-3.71,4.33-7.28,8.79-11.06,13.06-5.87,6.63-9.97,13.88-9.6,23.12.1,2.57-.55,5.17-.87,7.81-2.69-.36-2.61-2.21-2.51-3.85.68-10.84-3.55-19.48-11.74-26.33-1.89-1.58-2.66-3.66-3.37-5.9-.81-2.56-2.52-4.53-4.85-6.27-7.53,5.07-14.62,10.66-20.57,17.52-6.1,7.04-7.46,15.8-7.13,25.03-.58-.05-1.16-.1-1.75-.14-.5-3.64-1.18-7.28-1.43-10.94-.2-2.94-1.16-5.3-3.27-7.37-3.77-3.68-6.49-8.21-9.54-12.47-1.86-2.6-2.43-5.59-2.43-8.76.02-18.51-.03-37.01.03-55.52.03-7.74,4.43-12.67,10.66-16.6,3.65-2.3,7.25-4.45,11.52-5.38,2.8-.61,2.79-2.52,1.56-4.59-2.28-3.83-4.71-7.58-6.95-11.43-3.27-5.63-4.53-12.07-7.18-17.97-2.22-4.93-6.38-8.24-9.62-12.32-1.48-1.86-2.42-3.71.34-4.74,14.42-5.42,17-18.15,19.49-31,.17-.87.05-1.89,1.55-2.67Zm28.45,123.61c0-5.09-.36-10.21.1-15.26.5-5.45-1.21-9.68-5.5-12.79-3.9-2.83-8.26-5.37-13.21-3.96-3.95,1.12-6.55,4.57-6.67,8.66-.44,15.25-1.74,30.49-1.13,45.76.11,2.71.97,5.46,1.88,8.06,1.63,4.63,7.65,6.94,11.78,4.37,7.88-4.9,14.19-10.76,12.84-21.44-.56-4.4-.09-8.93-.09-13.41Zm.54-53.48c-.72-6.86-.15-13.88-2.48-20.53-1.37-3.91-2.83-8.28-7.33-9.33-8.55-2-17.48,3.8-18.76,12.11-1.11,7.16-.95,14.55,2.87,21.46,4.44,8.04,12.12,11.45,19.77,14.86,3.21,1.43,5.54-.27,5.67-4.26.15-4.77.6-9.52.27-14.3Z"/>
  <path d="m810.68,574.65c-1.43-1.45-1.41-2.61-1.35-3.63.69-10.93-2.56-21.32-4.27-31.91-.85-5.26-2.37-10.59,1.67-15.45.73-.87.44-2.67.46-4.04.37-31.61.68-63.22,1.1-94.84.06-4.52-.62-8.87-1.82-13.65-6.87,2.85-10.04,8.78-12.27,14.83-2.3,6.27-1.66,13.26-2.86,19.9-1.75-4.63-.93-9.44-1.5-14.13-.97-7.9-6.28-12.29-11.29-17.17-.77-.75-1.69-1.34-2.52-2.03-5.48-4.55-7.97-4.78-14.09-1.31-.91.52-1.83,1.03-2.74,1.55-.79-3.27.08-4.71,3.04-7.56,4.24-4.08,9.75-7.09,11.67-13.27.56-1.79.97-3.53.99-5.41.33-29.92,1.28-59.82,2.62-89.7.17-3.85.48-7.69.65-11.53.13-3.08-.62-6.44-3.43-7.48-3.15-1.17-6.91-1.56-10.08.99-1.28,1.03-2.41,2.44-4.61,2.56.43-3.71.65-7.36,1.32-10.94,1.13-6.02,5.55-8.94,10.98-10.44,3.89-1.08,5.88-3.25,6.13-7.35.49-7.84,1.29-15.67,1.81-23.51.13-1.91,1.24-3.06,2.27-4.38,6.18-7.87,12.78-15.45,16.89-24.73,1.35-3.05,2.57-6.16,3.95-9.5,1.72,2.25,1.52,4.61,1.42,7-.78,17.7-2.61,35.32-2.65,53.09-.02,8.98,5.03,11.6,13.62,7.62,1.21-.56,2.32-1.57,4.02-1.13.56,4.76-.65,9.13-3.41,13.01-1.33,1.87-1.81,3.79-1.81,6.03.04,36.09.02,72.18.02,108.27,0,.15-.06.34.01.46-.51,11.52-.73,17.73-.66,26.64.07,8.29-.48,16.63-.48,24.95-.02,27.3,0,54.6-.02,81.89,0,2.79.02,5.53,1.2,8.15.8,1.75.87,3.72.31,5.45-2.86,8.83-2.65,17.92-2.57,27.01.04,5.09-.78,10.07-1.74,15.68Zm-2.72-179.11v-117.92c-3.54-.77-5.21.23-5.73,3.7-.79,5.34-1.4,10.68-1.53,16.08-.18,7.7-.45,15.4-.76,23.1-.9,22.49-.36,44.99-.43,67.48-.02,4.86,3.58,7.97,8.44,7.56Z"/>
  <path d="m744.82,321.97c-2.95,9.9-6.4,19.12-5.81,29.2.57,9.64.32,19.22,1.94,28.92,1.65,9.89,9.94,16.94,10.55,27.25-3.36.6-5.76-.54-7.93-1.85-9.72-5.88-14.41-5.51-22.97,1.66-6.5,5.44-12.36,11.27-16.25,19-2.26,4.48-2.04,9.21-2.82,13.84-.32,1.9.13,3.99-2.26,5.85-.45-3.85-1.1-7.23-1.19-10.62-.23-8.06-2.19-15.68-8.09-21.2-6.25-5.86-13.06-11.57-22.38-11.82-7.85-.21-12.56,3.89-14.48,11.74-.77,3.15-.25,6.76-3.13,10-3.36-7.41-1.72-13.87,1.25-20.17,7.09-15.1,20.29-20.38,35.72-21.69,7-.59,12.83,2.47,17.94,7.07,1.26,1.13,2.52,2.29,3.92,3.23,2.51,1.68,4.17,1.11,4.11-2.12-.32-15.55.81-31.12-.84-46.66-.49-4.62-2.93-6.51-7-7.09-10.72-1.54-21.52-1.33-32.31-1.11-5.23.1-9.14,3.33-13.14,6.21-2.84,2.04-5.63,4.16-9.35,5.18-.83-3,.73-5.03,1.79-7.13,7.21-14.16,9.14-28.89,4.69-44.26-1.04-3.58-3.33-6.52-5.61-9.43-1.46-1.86-3.65-3.27-4.26-6.4,5.38-.43,10.53-.85,15.67-1.27,13.58-1.11,24.59-6.53,31.23-18.96,3.45-6.45,4.66-13.52,4.89-20.79.06-1.77-.29-3.65.78-5.48,3.22.57,2.6,3.17,3.15,5.29,2.18,8.38,3.38,17.09,7.99,24.71.83,1.38,1.9,2.43,3.1,3.36,7.85,6.08,14.8,13.52,24.75,16.47,2.1.62,3.9,1.78,4.49,4.11-.72,1.87-2.39,2.5-3.89,3.16-7.15,3.17-12.76,8.54-18.81,13.24-3.17,2.46-5.41,5.72-5.63,10.1-.09,1.88.18,4.05-1.36,5.68-1.77-.48-1.36-1.83-1.27-2.98.58-7.16-1.86-13.22-7.51-17.46-6.65-4.99-11.06-12.27-17.75-17.12-1.91,1.08-1.62,2.72-1.62,4.19-.03,10.79-.02,21.58,0,32.38,0,2.65.55,5.2,1.9,7.53.71,1.22,1.48,2.35,3.08,2.5,6.89.64,13.58,2.62,20.57,2.8,8.67.22,16.72-1.14,24.12-6.12,2.52-1.69,5.62-3.16,10.03-2.95Z"/>
  <path d="m258.88,425.69c-1.74-4.23-2.17-7.73-1.57-11.75,2.55-17.17,21.76-30.37,36.62-30.09,8.58.16,15.77,1.74,21.36,8.5.67.81,1.67,1.35,2.55,1.96,2.84,1.97,4.53.89,4.53-2.24,0-12.48.51-24.98-.46-37.45-.26-3.38-.72-6.76-.68-10.14.05-3.39-1.6-5.63-4.57-5.99-14.59-1.81-29.33-5.23-43.58,1.42-3.85,1.8-7.22,4.61-10.83,6.91-.61.39-1.38.54-2.25.86-1.42-2.95.04-5.1,1.23-7.38,7.03-13.39,8.34-27.46,4.79-42.07-1.21-4.98-4.45-8.69-7.7-12.43-1.25-1.44-3.18-2.67-2.36-5.31,6.81-.39,13.78-.19,20.53-1.3,13.49-2.22,22.9-9.92,27.56-22.96,2.5-6.98,3.04-14.42,4.7-21.61,2.73-.03,3.12,2.31,3.39,3.77.59,3.18.84,6.15,1.38,9.31,3.08,18.05,15.4,27.95,30.62,35.47,2.79,1.38,7.22,1.9,7.35,5.39.11,3.01-4.26,3.41-6.67,4.8-5.51,3.19-10.34,7.25-15.19,11.28-3.54,2.93-6.03,6.55-5.9,11.5.04,1.55.05,3.3-1.48,4.58-1.67-1.64-1.05-3.45-1.04-5,.03-5.72-1.9-10.56-6.15-14.37-6.07-5.45-12.36-10.65-18.03-16.54-.62-.65-1.35-1.32-2.42-1.04-1.61,1.05-1.19,2.71-1.19,4.19-.03,10.33-.06,20.66,0,30.99.04,7.79,2.05,10.1,9.63,11.33,4.1.67,8.23,1.2,12.32,1.92,10.37,1.82,19.84-.26,28.64-6.03,2.64-1.73,5.68-2.83,10.33-3.82-6.6,14.98-6.46,29.78-6.67,44.69-.21,15.55,8.04,28.22,13.89,42.47-5.25-.04-8.74-1.55-11.7-3.45-6.91-4.44-13.13-2.52-18.86,1.66-8.09,5.89-14.47,13.53-18.23,22.81-1.8,4.46-1.84,9.63-2.69,14.48-.12.71.07,1.54-1.06,2.27-2.33-4.19-2.09-8.82-2.43-13.24-1.42-18.29-17.04-29.21-30.66-29.66-7.56-.25-12.68,4.58-14.2,12.26-.56,2.82.26,6.17-2.85,9.04Zm84.79-81.32c-4.17,1.17-9.15-2.26-9.18,3.45-.07,14.46.54,28.92,1.2,43.37.2,4.35,4.08,2.67,6.55,2.78,3.02.13,3.54-1.88,3.01-4.37-1.42-6.67-1.35-13.47-1.53-20.22-.21-7.98-.05-15.97-.05-25.01Zm-55.53-52.19c-6.87-.61-8.64.19-8.48,4.31.38,9.53,1.11,19.04,1.65,28.56.14,2.51,1.84,2.41,3.59,2.42,1.61,0,3.23,0,3.23-2.23.02-11.03,0-22.07,0-33.05Zm42.65.57c.31-3.48-1.65-5.41-3.78-7.22-3.61-3.06-7.83-5.41-10.63-9.39-.81-1.15-2-1.54-3.12-.4-1.16,1.17-1.02,2.51.04,3.7,3.26,3.65,6.26,7.58,10.43,10.3,2.08,1.35,3.64,3.91,7.07,3.01Zm-16.5,116.87c.28-.47.6-.77.56-.98-.77-3.41-11.47-12.67-14.73-12.81-1.26-.05-2.01.63-2.43,1.69-.54,1.37.46,1.93,1.45,2.41,2.89,1.41,5.6,3.05,8.18,5,2.22,1.69,4.08,4.03,6.99,4.69Z"/>
  <path d="m867.69,234.17c.54,4.99.44,8.94,1.36,12.81,1.23,5.19,3.05,9.96,6.83,13.88,4.07,4.21,6.53,9.13,7.08,15.12.43,4.71,2.89,5.8,6.96,3.54,6.56-3.64,11.28-8.89,13.7-16.08,2.22-6.59,3.39-13.4,4.4-20.25.15-.99-.17-2.26,2.1-2.78.46,4.78.98,9.5,1.34,14.23.32,4.14,1.05,8.23,1.51,12.32.93,8.21,7.01,11.73,12.53,15.97,1.05.81,2.76,1,2.7,2.77-.07,2.01-1.9,1.59-3.1,2.06-7.93,3.07-12.46,9.52-16.26,16.62-1.06,1.97-1.78,4.13-2.79,6.5-2.71-2.1-2.99-4.7-3.71-7.16-2.17-7.52-5.69-13.9-13.83-16.58-3.73-1.23-4.95-.11-5.36,3.6-1.31,11.98-1.4,24-1.33,36.02.05,7.88-.82,15.68-1.32,23.52-.79,12.16-.6,24.39,3,36.1,2.51,8.16,8.56,10,16.34,6.16,1.51-.74,3.07-1.36,4.66-2.06,1.16,1.93-.46,2.87-1.32,3.98-4.15,5.38-8.7,10.48-13.79,14.93-5.72,5-7.25,11.03-8.25,18.03-.76,6.65-1.66,12.57-1.09,19.44-2.99-1.51-2.86-3.62-2.65-5.49.69-6.2-.26-11.94-.87-18.43-.39-3.51-2.05-4.78-3.68-6.67-2.77-3.21-5.72-6.39-9.09-8.94-6.44-4.89-11.36-6.84-19.36-.18-1.99,1.66-3.78,3.57-6.37,4.48-.95-2.89-.33-5.17,1.88-7.12,1.38-1.22,2.51-2.73,3.88-3.97,8.71-7.9,11.66-18.22,11.75-29.41.21-27.9.09-55.8.03-83.7,0-2.3.87-4.88-2.11-6.5-3.03-1.65-5.26-.17-7.73,1.08-1.47.75-2.43,2.44-4.82,2.39-.61-2.47-1.01-4.28,1.84-6.38,11.96-8.79,19.58-20.47,22.1-35.29.43-2.54.59-5.21,2.84-8.53Z"/>
  <path d="m608.29,449.09c.05-7.32-.65-14.47-2.07-21.54-1.36-6.79-10.48-15.13-17-16.97-1.71-.48-3.18.42-4.77,1.15-3.25,1.49-6.38,3.7-11.47,3,3.52-3.83,6.19-7.5,9.59-10.28,7.79-6.39,11.2-14,11.05-24.38-.37-25.73.25-51.47.62-77.21.06-4.22-1.4-7.91-3.27-11.37-2.64-4.9-5.56-5.41-13.9-3.46-1.23-2.36-.22-3.74,1.65-5.41,5.26-4.71,11.12-8.76,15.5-14.44,5.36-6.93,7.74-14.85,8.35-23.45.14-1.97.26-1.97,2.13-3.9,1.13,4.8.03,9.57,1.45,14.15.82,2.65,1.37,5.07,3.3,7.29,2.44,2.81,5.21,5.23,7.91,7.7,3.38,3.08,6.68,2.44,11.27-1.49,1.38-1.19,2.83-2.31,4.25-3.45.5-.4,1.06-.64,2.07-.18,1.42,1.83.14,3.32-1.23,4.83-3.09,3.42-6.24,6.85-9.52,10.04-3.98,3.87-4.55,8.43-5.11,13.34-2.5,22.29-.96,44.66-1.33,66.98-.16,9.4.18,18.81-.1,28.21-.15,5.01,3.06,7.92,5.99,10.85,1.62,1.62,4.08.39,5.75-1.25,1.18-1.16,2.17-2.66,4.23-2.05,1.18,2.3-.72,3.44-1.81,4.75-5.52,6.64-11.01,13.3-16.73,19.76-2.11,2.38-2.94,4.8-2.84,7.92.19,5.39.1,10.79.03,16.18-.04,3.45-.11,3.44-4.01,4.68Z"/>
  <path d="m435.4,264.45c1.01,2.45.09,3.65-1.24,4.94-2.99,2.89-5.73,6.05-8.72,8.93-4.02,3.87-5.71,8.75-6.09,14.07-1.74,24.02-1.34,48.07-1.23,72.12.04,8.02.31,16.04.13,24.06-.1,4.27,2.38,6.96,5.03,9.44,1.82,1.71,4.05.62,5.83-.87,1.38-1.15,2.32-2.95,4.54-2.97,1.66,2.27-.12,3.68-1.35,5.13-6,7.04-11.99,14.09-18.11,21.03-1.65,1.87-2.34,3.78-2.28,6.25.13,5.86.09,11.72,0,17.58-.02,1.52.68,3.53-2.31,4.24-.7-5.18-1.54-10.25-2.03-15.35-.88-9.09-6.31-15.12-13.19-20.23-3.88-2.87-7.96-3-12.06-.51-2.52,1.53-5.09,2.72-8.18,2.45-.61-3.09,1.56-4.42,3.2-5.88,4.4-3.89,8.54-7.99,12.19-12.62,2.01-2.55,3.08-5.27,3.12-8.47.4-28.83,2.08-57.64,1.75-86.49-.02-1.53.03-3.04-.48-4.56-3.14-9.51-6.82-11.52-16.65-8.93-1.31-2.88-.22-4.82,2.13-6.68,3.74-2.97,7.17-6.32,10.85-9.36,7.77-6.4,11.17-14.79,11.81-24.63.16-2.42-.77-5.28,1.89-7.6,2.19,3.77,2.04,7.93,2.12,11.64.22,9.66,8.02,13.71,13.44,19.43,1.68,1.77,4.53.6,6.73-1.05,2.76-2.07,5.24-4.84,9.19-5.12Zm-22.32,74.27c.41,0-.35-4.32.06-4.32,0-18.03,1.17-31.74,1.17-49.77,0-2.37-.06-4.66-2.71-5.84-1.92-.85-3.65-.55-5.15.78-2.08,1.85-2.45,4.13-1.43,6.72,1.09,2.77,1.18,5.67,1.19,8.62.13,33.75-.25,67.5-1.74,101.22-.19,4.28.93,7.4,4.12,10.07,1.37,1.15,2.75,2.36,4.47,1.58,1.82-.83,1.68-2.68,1.37-4.45-1.02-5.93-1.45-11.89-1.4-17.93.11-15.56.04-31.12.04-46.68Z"/>
  <path d="m56.15,584.4c1.19-14.14-2.63-27.44-4.49-41.24-.68-5.05.29-8.65,2.56-12.56.82-1.41.5-3.02.5-4.54.04-94.22.07-188.43.08-282.65,0-60.14-.06-120.27,0-180.41,0-3.13-.61-5.59-2.95-7.81-3.52-3.35-3.11-7.13-2.07-11.8,2.93-13.19,6.95-26.35,4.99-40.2-.14-1.01.13-2.07.71-3.19,2.02,4.56,2.06,9.55,2.76,14.35.91,6.22.64,12.59,2.12,18.78.78,3.27,2.86,5.93,3.28,9.38.5,4.04,1.08,7.99-1.76,11.45-1.69,2.06-1.78,4.45-1.77,6.97.11,52.43.26,104.86.25,157.28-.02,101.31-.15,202.6-.21,303.9,0,3.68.05,7.31.74,11.01.74,4.03.52,8.18-.54,12.33-1.28,5.02-1.9,10.1-1.51,15.49.52,7.31-.34,5.1-.69,12.47,0,0-1,9-1.69,11.92"/>
  <path d="m588.99,192.11c4.93-6.16,9.78-12.11,14.5-18.16,1.59-2.04,3.05-2.87,5.3-.93,5.55,4.79,8.63,11.97,15.36,15.66,1.28.7.16,2.13-.59,3.17-4.21,5.84-9.34,10.93-13.22,17.07-2.35,3.73-3.64,3.42-6.12-.38-.92-1.41-1.97-2.82-2.5-4.39-1.58-4.61-5.06-7.14-9.34-8.68-1.84-.66-2.59-1.95-3.39-3.36Z"/>
  <path d="m424.73,187.28c.11,2.34-1.31,3.28-2.19,4.47-4.03,5.43-8.5,10.52-11.87,16.45-2.12,3.73-4.13,3.57-6.35-.15-1.26-2.11-2.4-4.3-3.63-6.43-1.91-3.3-4.51-5.87-8.16-7.12-3.88-1.32-3.68-4.11-1.78-6.44,5.02-6.19,10.45-12.05,15.84-18.2,6.51,5.92,10.75,13.56,18.13,17.41Zm-11.58,4.12c0-3-3-7-6-7-3.25.31-5.24,3.47-6,6,0,2,1.84,6.85,5.88,6.75,4.37-.11,5.7-3.04,6.12-5.75Z"/>
  <path d="m0,442.29c9.7,1.98,17.92-.21,25.02-5.45,9.36-6.91,17.29-15.25,21.66-26.4,2.44-6.21,1.86-11.17,1.85-17.93.55-44.75,1-93,.5-144.5-.4-36.84-.5-74.36-1.43-111.19-.09-3.39-1.19-5.55-4.14-7.51-12.71-8.47-24.44-18.18-35.42-28.81-.93-.9-1.65-1.87-3.41-.73.5,2.61,1.62,5.04,3.22,7.27,5.42,7.55,9.36,15.82,12.22,24.66,1.21,3.74,1.56,7.49,1.73,11.36,2.11,48.69,1.1,97.42,1.68,146.13.44,37.6.68,75.2,1.14,112.8.18,14.54-5.39,26.25-16.4,35.54-2.25,1.89-5.46,2.02-8.23,4.76Z"/>
</svg>