<?xml version="1.0" standalone="no"?>
<!DOCTYPE svg PUBLIC "-//W3C//DTD SVG 20010904//EN"
 "http://www.w3.org/TR/2001/REC-SVG-20010904/DTD/svg10.dtd">
<svg version="1.0" xmlns="http://www.w3.org/2000/svg"
 width="1600.000000pt" height="1600.000000pt" viewBox="0 0 1600.000000 1600.000000"
 preserveAspectRatio="xMidYMid meet">
<metadata>
Created by potrace 1.15, written by Peter Selinger 2001-2017
</metadata>
<g transform="translate(0.000000,1600.000000) scale(0.100000,-0.100000)"
fill="#000000" stroke="none">
<path d="M10725 13416 c-285 -144 -689 -260 -1125 -321 -66 -10 -265 -19 -534
-25 -414 -10 -434 -12 -581 -40 -258 -51 -860 -235 -985 -301 -71 -38 -196
-152 -253 -232 -84 -117 -189 -352 -264 -591 l-19 -60 -155 -63 c-228 -93
-486 -228 -681 -357 l-28 -18 -11 28 c-24 64 -79 296 -94 401 -11 74 -15 159
-13 250 3 121 6 144 26 186 89 179 295 310 712 452 248 85 406 155 533 238
101 66 207 166 207 196 0 27 -8 26 -83 -5 -222 -94 -368 -132 -652 -170 -215
-28 -305 -53 -600 -164 -348 -131 -562 -263 -668 -412 -110 -156 -202 -347
-244 -508 -22 -83 -24 -109 -19 -207 l5 -112 -54 -113 c-88 -184 -111 -223
-128 -226 -9 -2 -42 17 -73 42 -83 68 -91 66 -166 -60 -72 -121 -158 -232
-248 -319 l-62 -60 7 40 c12 60 9 103 -10 173 -17 60 -17 67 -1 117 9 29 44
92 78 139 58 83 63 87 117 102 31 8 66 21 79 28 34 19 112 118 112 143 0 36
36 106 70 138 46 43 90 114 90 147 0 41 26 98 60 131 48 47 37 76 -13 37 -43
-34 -87 -110 -87 -149 0 -39 -30 -82 -121 -172 -26 -26 -52 -63 -59 -85 -17
-54 -117 -154 -153 -154 -2 0 7 21 20 48 22 41 24 56 19 115 -6 66 -5 69 35
137 23 39 48 70 54 70 16 0 89 80 81 88 -4 3 -20 -9 -37 -26 -40 -41 -64 -43
-55 -4 14 59 19 152 8 152 -12 0 -17 -15 -27 -75 -9 -59 -23 -91 -78 -175
l-49 -75 5 -80 c3 -48 1 -87 -5 -100 -6 -11 -41 -54 -78 -95 -69 -77 -136
-177 -192 -287 -31 -61 -32 -63 -18 -115 8 -32 14 -112 15 -201 l1 -148 -52
-44 c-79 -68 -82 -84 -48 -218 35 -140 36 -228 1 -342 -34 -112 -100 -267
-152 -355 -58 -98 -90 -174 -110 -252 -18 -74 -97 -278 -107 -278 -15 0 -38
60 -38 97 0 21 9 55 20 76 11 20 20 45 20 55 0 11 -17 72 -39 138 -21 65 -44
150 -51 187 -31 165 31 283 195 370 102 54 109 69 69 158 -25 54 -29 77 -29
149 0 95 16 145 69 220 18 25 48 96 70 163 l38 117 -17 95 c-9 52 -15 121 -13
152 2 46 0 58 -12 58 -26 0 -34 -71 -20 -188 9 -74 10 -111 2 -119 -11 -11
-42 63 -67 159 -8 29 -28 71 -46 92 l-31 40 18 89 c17 88 17 89 -4 148 -11 32
-24 74 -27 92 -4 18 -11 30 -16 26 -14 -8 -11 -77 6 -124 18 -51 19 -79 4
-117 -11 -27 -13 -24 -30 55 -35 152 -58 163 -40 19 15 -115 32 -173 65 -224
14 -21 35 -74 46 -118 11 -43 26 -88 34 -100 7 -11 17 -57 21 -101 8 -100 -4
-133 -73 -201 -59 -57 -67 -82 -77 -242 -3 -64 -13 -131 -22 -153 -9 -24 -43
-63 -86 -103 -39 -35 -72 -63 -73 -62 -1 1 5 42 14 90 l15 88 -26 53 c-15 29
-27 61 -27 70 0 9 22 45 49 78 32 39 52 75 56 99 4 21 30 72 58 114 40 61 48
78 38 88 -10 9 -17 6 -35 -17 -11 -16 -31 -41 -43 -55 l-22 -26 -1 53 c0 38
-4 52 -14 52 -19 0 -29 -48 -28 -137 1 -65 -2 -77 -26 -105 -51 -62 -60 -62
-64 0 -3 40 -6 47 -26 50 -21 3 -22 0 -22 -65 0 -79 24 -233 40 -263 18 -33
-46 -238 -80 -258 -36 -21 -80 -81 -80 -109 0 -14 16 -77 35 -141 48 -158 75
-342 68 -463 -6 -92 -5 -97 30 -176 32 -73 71 -214 69 -253 0 -8 -6 -34 -13
-57 -12 -38 -11 -51 10 -115 62 -201 63 -202 62 -305 0 -156 -7 -157 -86 -12
-40 73 -86 141 -110 164 -54 52 -67 89 -55 160 5 30 12 59 15 64 3 5 -12 42
-32 82 -34 64 -38 81 -41 159 -2 48 1 118 7 156 8 52 7 70 -2 76 -22 14 -36
-16 -46 -102 -6 -46 -11 -91 -11 -100 0 -8 -18 20 -40 63 -29 56 -37 83 -31
95 5 9 17 44 26 77 10 33 44 126 76 208 33 81 59 149 59 152 0 3 -8 5 -17 5
-13 0 -27 -21 -47 -70 -15 -39 -32 -70 -36 -70 -19 0 -18 78 1 153 15 57 18
82 10 90 -16 16 -26 1 -46 -76 -14 -54 -16 -88 -11 -165 7 -94 6 -100 -29
-197 -45 -124 -46 -154 -6 -233 17 -34 31 -66 31 -72 0 -5 18 -50 40 -99 34
-76 40 -98 40 -157 l-1 -69 -76 80 c-63 67 -85 100 -133 200 -32 66 -63 146
-70 179 -19 93 4 199 66 301 20 33 49 85 65 116 l30 57 -26 130 c-49 247 -34
334 92 523 43 65 44 69 38 122 -9 67 8 154 38 199 30 44 116 94 186 109 76 16
96 31 127 92 51 100 78 131 125 144 42 11 109 66 97 79 -3 3 -25 -4 -48 -16
-23 -12 -57 -23 -77 -26 -45 -5 -68 -22 -107 -77 -63 -88 -86 -109 -128 -118
-22 -6 -43 -7 -46 -5 -6 7 37 74 85 134 44 54 40 72 -17 86 -37 9 -48 17 -63
47 -16 34 -16 40 -1 107 14 62 19 72 45 83 17 6 43 28 59 48 28 33 30 42 30
116 0 70 5 92 35 164 39 93 41 101 20 101 -8 0 -32 -34 -55 -77 l-41 -78 6
100 c3 55 7 114 8 130 1 21 -3 30 -13 30 -9 0 -19 -19 -27 -55 -17 -76 -18
-148 -4 -265 16 -125 9 -148 -54 -176 -33 -15 -46 -27 -51 -47 -22 -99 -37
-150 -50 -169 -23 -37 -17 -49 41 -78 30 -16 55 -33 55 -38 0 -14 -88 -146
-126 -188 -47 -53 -90 -152 -110 -249 -23 -115 -25 -121 -86 -187 -30 -32 -60
-74 -68 -93 -8 -19 -29 -56 -47 -83 -38 -57 -42 -95 -18 -228 8 -46 15 -116
16 -154 2 -78 -11 -112 -58 -157 l-29 -28 -43 104 -43 104 8 116 c6 106 5 120
-16 168 -27 62 -29 172 -5 218 9 17 42 47 75 68 55 34 80 65 66 80 -4 3 -12 0
-18 -6 -22 -22 -28 -12 -28 51 -1 35 -7 73 -15 87 -8 14 -14 44 -15 68 0 29
-4 42 -14 42 -29 0 -36 -86 -11 -134 16 -30 19 -74 9 -123 -4 -22 -14 -33 -41
-42 -42 -15 -66 -53 -94 -144 -23 -73 -20 -138 6 -173 17 -22 19 -91 4 -153
-5 -25 -11 -79 -11 -120 -2 -64 2 -86 25 -135 15 -33 32 -92 38 -130 10 -66 8
-83 -25 -231 -19 -88 -42 -178 -51 -199 -21 -50 -15 -80 30 -151 72 -112 248
-339 303 -389 186 -170 364 -372 466 -527 37 -56 37 -56 20 -91 -15 -33 -15
-39 10 -138 15 -58 26 -131 26 -167 0 -58 -3 -68 -29 -94 -24 -24 -38 -29 -76
-29 -75 0 -85 10 -85 84 0 73 -13 90 -98 126 -58 25 -55 19 -73 153 -6 48 -15
90 -20 93 -5 3 -9 -33 -9 -81 l0 -86 -27 19 c-16 11 -62 54 -104 96 l-77 76
-114 0 c-125 0 -146 7 -173 60 -22 42 -19 79 15 166 l30 78 -29 81 c-50 139
-71 204 -71 224 0 10 -7 24 -16 31 -12 11 -18 11 -30 -1 -13 -13 -12 -26 5
-110 11 -51 32 -121 45 -154 14 -33 26 -68 26 -78 0 -23 -30 -116 -39 -122
-12 -7 -88 155 -106 224 -9 35 -18 118 -21 185 -5 128 -31 325 -44 340 -17 18
-21 -40 -11 -137 6 -56 12 -157 14 -224 l2 -122 -22 21 c-26 24 -37 56 -52
150 -14 83 -48 195 -62 204 -21 13 -22 -8 -4 -103 16 -83 17 -107 7 -166 -7
-38 -10 -73 -6 -78 3 -5 26 -20 52 -33 26 -13 57 -35 68 -48 22 -23 122 -240
144 -313 20 -64 109 -235 126 -242 8 -3 25 4 39 17 37 35 92 43 140 19 74 -36
273 -239 258 -262 -8 -13 -24 -124 -25 -170 -1 -17 12 -43 31 -67 l31 -39 -1
-213 c0 -162 -3 -207 -11 -188 -6 14 -22 50 -36 80 -21 47 -26 73 -29 175 -4
120 -24 225 -44 225 -7 0 -9 -34 -4 -107 6 -86 4 -117 -9 -153 -21 -61 -21
-68 14 -145 36 -81 37 -105 5 -172 -22 -48 -48 -68 -57 -44 -1 5 -30 29 -63
53 -33 25 -103 83 -155 130 -52 46 -115 99 -139 116 l-44 32 -16 -31 c-15 -31
-14 -32 20 -64 20 -18 40 -34 45 -36 17 -8 87 -101 109 -147 42 -87 45 -109
45 -328 l0 -213 -38 13 c-55 19 -104 96 -148 236 -60 191 -140 360 -171 360
-19 0 -17 -9 28 -106 42 -91 92 -224 83 -224 -21 0 -116 61 -157 101 -48 47
-77 61 -77 38 0 -19 125 -134 187 -172 53 -31 63 -41 63 -65 0 -15 18 -62 39
-104 l39 -77 -30 -10 c-72 -25 -131 -2 -183 71 -41 56 -57 58 -124 12 -39 -27
-148 -64 -188 -64 -29 0 -65 -36 -113 -114 -19 -32 -65 -86 -102 -121 -72 -66
-82 -85 -47 -85 14 0 56 34 118 96 86 87 96 94 108 78 29 -40 6 -91 -62 -132
-49 -30 -72 -62 -45 -62 25 0 124 66 142 94 19 31 19 52 2 133 -7 37 -6 38
112 68 l71 18 109 -74 109 -74 120 -1 c66 0 129 -1 139 -2 18 -2 19 -12 12
-275 -3 -149 -9 -616 -11 -1037 -6 -834 -16 -1111 -46 -1191 -22 -61 -113
-168 -180 -212 -27 -17 -47 -36 -46 -42 7 -18 113 -9 184 16 134 46 250 140
299 244 77 164 83 250 91 1378 l6 948 39 -38 38 -37 0 -1822 0 -1821 -26 -47
c-18 -32 -23 -50 -16 -59 5 -6 12 -44 16 -84 3 -40 13 -101 21 -135 8 -35 15
-111 15 -171 0 -82 3 -108 13 -105 15 5 29 193 22 283 -3 33 -1 76 5 95 8 24
11 608 10 1910 l0 1875 27 -34 26 -33 -2 -937 c-2 -1003 -3 -991 48 -1106 35
-79 84 -146 157 -214 86 -79 157 -114 245 -119 99 -6 113 1 58 26 -57 27 -150
125 -180 190 -49 107 -49 115 -38 882 5 393 11 836 12 984 l2 268 64 24 c49
19 88 25 160 27 133 3 178 -19 303 -146 98 -100 92 -97 213 -112 121 -16 240
-84 376 -214 62 -59 69 -70 69 -104 0 -31 -9 -48 -42 -88 -24 -28 -63 -65 -88
-84 -25 -18 -74 -56 -110 -83 -58 -45 -67 -49 -81 -36 -10 9 -22 36 -29 62 -9
37 -24 58 -77 108 -72 68 -82 92 -83 214 0 62 -12 102 -25 88 -4 -4 -13 -51
-20 -105 -10 -66 -23 -116 -42 -154 -32 -64 -78 -128 -108 -149 -59 -42 -136
-125 -133 -144 4 -29 32 -31 67 -7 42 30 68 26 111 -17 35 -35 38 -42 50 -137
13 -99 8 -593 -8 -867 l-7 -107 -47 -48 c-57 -58 -61 -85 -16 -104 62 -26 105
-85 139 -194 18 -55 35 -129 38 -164 6 -63 22 -88 35 -54 4 9 11 58 15 107 5
50 16 109 24 131 8 22 22 61 32 88 9 26 22 47 30 47 7 0 18 7 25 15 7 8 20 15
30 15 10 0 24 7 31 16 11 14 8 25 -20 77 l-32 62 3 565 3 564 54 38 c77 54
121 53 179 -3 l42 -41 0 -947 0 -946 24 -75 c13 -41 32 -95 42 -120 32 -79
119 -203 175 -250 88 -74 103 -81 167 -78 50 3 57 6 60 25 3 18 -7 27 -45 47
-60 30 -82 54 -125 135 l-33 65 1 375 c1 207 5 687 10 1066 9 665 10 691 29
724 11 19 25 36 32 38 6 2 24 -13 40 -33 15 -20 69 -84 118 -142 50 -57 123
-144 162 -192 40 -49 77 -91 82 -94 15 -10 34 126 29 215 -5 98 -29 160 -89
231 -49 58 -50 78 -6 79 17 0 78 4 134 8 85 6 112 13 167 40 78 38 158 122
181 189 22 65 19 74 -28 106 -23 17 -74 54 -113 83 -40 29 -75 53 -78 53 -13
0 -173 136 -246 210 -41 41 -118 129 -171 195 -118 147 -129 157 -204 188 -68
28 -83 46 -190 222 -280 464 -461 1003 -527 1575 -19 171 -16 647 5 830 10 80
22 159 28 177 6 19 39 59 80 97 38 35 69 69 69 75 0 20 -34 12 -80 -19 -24
-16 -46 -28 -48 -26 -7 8 78 335 119 457 159 477 381 874 708 1266 l85 103 47
-123 c75 -197 183 -447 289 -674 48 -102 232 -433 340 -613 32 -52 82 -138
113 -191 l56 -96 -19 -64 c-29 -97 -67 -280 -86 -419 -25 -175 -25 -596 -1
-765 87 -600 308 -1107 674 -1544 40 -47 73 -89 73 -92 0 -3 -25 -34 -56 -70
-74 -84 -207 -272 -273 -384 -92 -155 -240 -489 -256 -578 -4 -20 -11 -39 -14
-42 -4 -2 -36 9 -71 26 -34 16 -65 28 -67 25 -9 -9 28 -63 74 -107 71 -68 115
-99 212 -149 48 -25 86 -51 86 -60 0 -8 -32 -32 -71 -55 -77 -43 -166 -113
-203 -158 -15 -18 -25 -46 -28 -75 -7 -67 -10 -77 -27 -63 -8 7 -14 35 -15 72
-1 34 -8 71 -17 83 -8 13 -69 74 -135 136 -81 76 -124 109 -130 103 -7 -7 -9
-87 -7 -220 4 -254 4 -255 102 -272 228 -40 281 -36 422 34 51 25 99 45 109
45 20 0 16 -28 -18 -130 -19 -57 -21 -88 -22 -244 l0 -179 89 -54 c50 -30 135
-88 190 -129 55 -42 106 -79 114 -81 21 -9 60 46 66 92 3 22 11 252 17 510 11
460 10 471 -9 516 -11 25 -33 56 -48 68 -29 23 -49 24 -111 5 -20 -5 -23 -3
-23 19 0 19 22 44 94 107 139 120 171 176 184 316 5 60 11 79 22 79 11 0 18
-25 30 -102 l15 -103 65 -65 c43 -43 72 -65 88 -65 13 0 44 16 69 35 50 38 83
45 83 17 0 -9 -33 -53 -74 -96 -113 -121 -108 -88 -113 -727 l-5 -536 32 -37
c38 -42 58 -45 90 -11 26 27 60 33 60 11 0 -8 -32 -52 -71 -97 -39 -46 -68
-84 -63 -86 22 -6 367 -53 438 -59 l79 -7 -19 33 c-10 18 -43 47 -71 66 -62
39 -66 58 -22 100 73 70 70 52 82 498 15 574 7 648 -82 700 -32 18 -32 18 -76
-5 -41 -22 -46 -23 -61 -7 -21 21 -10 37 71 106 133 112 179 194 197 351 10
81 15 101 28 99 11 -3 17 -28 26 -108 6 -58 15 -114 21 -125 7 -11 36 -43 66
-71 40 -37 59 -64 71 -101 28 -83 31 -83 142 0 55 41 123 99 152 130 l52 56 0
105 c0 63 4 107 11 111 16 11 19 3 29 -89 13 -115 26 -141 95 -204 103 -94
134 -100 206 -35 32 29 44 35 57 26 39 -24 27 -53 -62 -142 -56 -56 -90 -99
-96 -121 -6 -20 -12 -311 -16 -694 l-5 -659 53 6 c29 4 96 9 148 13 52 4 106
12 120 19 48 24 194 186 207 230 9 29 13 169 13 527 0 454 -1 489 -19 530 -22
52 -63 83 -97 74 -78 -19 -74 -20 -74 5 0 16 12 32 35 48 20 13 67 55 105 92
83 81 125 161 140 268 6 40 13 77 16 82 14 23 23 3 27 -58 9 -118 17 -139 82
-204 32 -32 67 -61 76 -64 24 -8 61 9 100 44 37 35 69 41 69 13 0 -10 -36 -56
-80 -104 -68 -73 -82 -94 -92 -140 -10 -39 -13 -194 -13 -594 l0 -541 32 -31
c38 -39 47 -39 85 -7 34 29 58 32 58 9 0 -14 3 -15 20 -3 215 152 332 221 455
273 106 44 258 99 310 111 l50 12 -1 84 c-1 170 -4 172 -274 173 l-195 1 -45
-28 c-25 -16 -63 -41 -85 -57 -22 -16 -50 -29 -62 -30 -26 0 -26 1 23 106 34
74 64 209 64 288 0 56 -27 171 -49 206 -8 14 -33 46 -55 73 -21 26 -37 49 -35
51 2 2 62 9 132 15 111 10 138 15 200 44 40 19 87 46 105 61 64 55 121 182
122 272 0 78 10 115 29 112 11 -2 19 -20 25 -53 5 -28 17 -74 27 -103 11 -29
19 -62 19 -73 0 -36 50 -112 97 -149 25 -19 67 -53 93 -75 27 -22 75 -51 107
-63 62 -25 93 -48 93 -68 0 -7 -30 -29 -67 -50 -71 -39 -144 -95 -199 -153
-26 -28 -34 -46 -39 -93 -5 -38 -11 -58 -19 -55 -6 2 -12 10 -13 18 -1 8 -5
41 -8 74 -7 59 -7 60 -107 160 -55 55 -112 112 -126 127 -15 16 -30 28 -34 28
-5 0 -8 -99 -8 -220 0 -171 3 -227 14 -248 13 -26 22 -29 133 -45 192 -28 250
-20 380 49 63 33 113 44 113 25 0 -6 -11 -41 -25 -79 -14 -38 -28 -98 -31
-133 l-5 -64 26 30 c15 17 41 49 58 71 18 23 66 81 107 129 41 48 84 99 94
114 11 14 40 50 64 79 l45 54 5 118 c4 100 2 123 -12 145 -23 35 -84 35 -132
-1 -19 -15 -37 -24 -41 -21 -11 12 16 151 35 176 23 31 69 59 99 60 35 1 63
47 63 102 0 26 5 94 11 150 l11 102 75 96 c68 87 163 255 163 288 0 24 19 14
26 -14 4 -14 1 -99 -6 -187 -7 -89 -14 -233 -17 -322 -5 -141 -3 -164 12 -188
10 -14 23 -26 31 -26 7 0 31 26 53 59 73 107 246 247 355 287 34 12 84 25 111
29 121 15 115 12 213 112 124 126 170 149 300 146 74 -2 111 -9 185 -34 50
-17 99 -37 107 -44 25 -21 86 -38 111 -31 45 12 116 74 192 168 156 193 246
265 372 299 29 7 107 13 185 13 l135 1 109 74 109 74 71 -18 c118 -30 119 -31
112 -68 -17 -81 -17 -102 2 -133 18 -28 117 -94 142 -94 27 0 4 32 -45 62 -68
41 -91 92 -62 132 12 16 22 9 108 -78 62 -62 104 -96 118 -96 35 0 25 19 -46
85 -38 35 -84 89 -103 121 -48 78 -84 114 -113 114 -40 0 -149 37 -188 64 -67
46 -83 44 -124 -12 -52 -73 -111 -96 -183 -71 l-30 10 39 77 c21 42 39 89 39
104 0 24 10 34 63 65 62 38 187 153 187 172 0 23 -29 9 -77 -38 -41 -40 -136
-101 -157 -101 -9 0 41 133 83 224 45 97 47 106 28 106 -31 0 -111 -169 -171
-360 -24 -74 -50 -134 -74 -169 -32 -46 -46 -57 -107 -81 -38 -15 -91 -30
-116 -34 -45 -7 -47 -6 -53 20 -4 15 -4 116 -1 223 l7 196 -37 40 c-43 47 -85
129 -85 167 0 14 14 56 30 93 35 77 35 84 14 145 -13 36 -15 67 -9 153 8 120
-4 141 -30 55 -9 -33 -16 -92 -16 -155 0 -114 -2 -123 -54 -243 -20 -47 -42
-97 -48 -111 -9 -23 -6 -34 24 -80 65 -100 89 -183 89 -306 0 -140 -52 -259
-164 -377 -66 -69 -75 -75 -131 -87 -71 -15 -247 -14 -360 2 -44 7 -112 25
-152 40 -79 32 -95 34 -125 18 -27 -15 -130 -92 -198 -149 -76 -64 -160 -123
-160 -113 1 16 107 143 241 287 70 75 170 224 203 304 37 86 41 131 21 191
-20 61 -14 124 19 217 34 92 103 187 226 311 109 110 157 144 320 229 47 25
60 38 90 95 71 133 142 231 237 324 112 111 160 138 216 125 22 -4 50 -18 62
-30 14 -13 31 -20 39 -17 17 7 106 178 126 242 22 73 122 290 144 313 11 13
42 35 68 48 26 13 49 28 52 33 4 5 1 40 -6 78 -10 59 -9 83 7 166 18 95 17
116 -4 103 -14 -9 -48 -121 -62 -204 -15 -94 -26 -126 -52 -150 l-22 -21 2
122 c2 67 8 168 14 224 10 97 6 155 -11 137 -13 -15 -39 -212 -44 -340 -3 -67
-12 -150 -21 -185 -18 -69 -94 -231 -106 -224 -9 6 -39 99 -39 122 0 10 12 45
26 78 13 33 34 103 45 154 17 84 18 97 5 110 -12 12 -18 12 -30 1 -9 -7 -16
-21 -16 -31 0 -20 -21 -85 -71 -224 l-29 -81 30 -78 c34 -87 37 -124 15 -166
-27 -53 -48 -60 -174 -60 l-114 0 -51 -52 c-105 -105 -218 -200 -264 -220 -79
-34 -92 -52 -92 -124 0 -74 -10 -84 -85 -84 -38 0 -52 5 -76 29 -26 26 -29 36
-29 94 0 36 11 109 26 167 25 99 25 105 10 138 -17 35 -17 35 20 91 102 155
280 357 466 527 55 50 231 277 303 389 45 71 51 101 30 151 -9 21 -32 111 -51
199 -33 148 -35 165 -25 231 6 38 23 97 38 130 23 49 27 71 25 135 0 41 -6 95
-11 120 -15 62 -13 131 4 153 26 35 29 100 6 173 -28 91 -52 129 -94 144 -27
9 -37 20 -41 42 -10 49 -7 93 9 123 25 48 18 134 -11 134 -10 0 -14 -13 -14
-42 -1 -24 -7 -54 -15 -68 -8 -14 -14 -52 -15 -87 0 -63 -6 -73 -28 -51 -6 6
-14 9 -18 6 -14 -15 11 -46 66 -80 33 -21 66 -51 75 -68 24 -46 22 -156 -5
-218 -21 -48 -22 -62 -16 -168 l8 -116 -43 -104 -43 -104 -29 28 c-47 45 -60
79 -58 157 1 38 8 108 16 154 24 133 20 171 -18 228 -18 27 -39 64 -47 83 -8
19 -38 61 -68 93 -61 66 -63 72 -86 187 -20 97 -63 196 -110 249 -38 42 -126
174 -126 188 0 5 25 22 55 38 58 29 64 41 41 78 -13 19 -28 70 -50 169 -5 20
-18 32 -51 47 -63 28 -70 51 -54 176 14 117 13 189 -4 265 -8 36 -18 55 -27
55 -10 0 -14 -9 -13 -30 1 -16 5 -75 8 -130 l6 -100 -41 78 c-23 43 -47 77
-55 77 -21 0 -19 -8 20 -101 30 -72 35 -94 35 -164 0 -74 2 -83 30 -116 16
-20 42 -42 59 -48 26 -11 31 -21 45 -83 15 -67 15 -73 -1 -107 -15 -30 -26
-38 -63 -47 -57 -14 -61 -32 -17 -86 48 -60 91 -127 85 -134 -3 -2 -24 -1 -46
5 -42 9 -65 30 -128 118 -39 55 -62 72 -107 77 -20 3 -54 14 -77 26 -23 12
-45 19 -48 16 -12 -13 55 -68 97 -79 47 -13 74 -44 125 -144 31 -61 51 -76
127 -92 70 -15 156 -65 186 -109 30 -45 47 -132 38 -199 -6 -53 -5 -57 38
-122 126 -189 141 -276 92 -523 l-26 -130 30 -57 c16 -31 45 -83 65 -116 62
-102 85 -208 66 -301 -7 -33 -38 -113 -70 -179 -48 -100 -70 -133 -133 -200
l-76 -80 -1 69 c0 59 6 81 40 157 22 49 40 94 40 99 0 6 14 38 31 72 40 79 39
109 -6 233 -35 97 -36 103 -29 197 5 77 3 111 -11 165 -20 77 -30 92 -46 76
-8 -8 -5 -33 10 -90 19 -75 20 -153 1 -153 -4 0 -21 31 -36 70 -20 49 -34 70
-46 70 -10 0 -18 -2 -18 -5 0 -3 26 -71 59 -152 32 -82 66 -175 76 -208 9 -33
21 -68 26 -77 6 -12 -2 -39 -31 -95 -22 -43 -40 -71 -40 -63 0 9 -5 54 -11
100 -10 86 -24 116 -46 102 -9 -6 -10 -24 -2 -76 6 -38 9 -108 7 -156 -3 -78
-7 -95 -41 -159 -20 -40 -35 -77 -32 -82 3 -5 10 -34 15 -64 12 -71 -1 -108
-55 -160 -24 -23 -70 -91 -110 -164 -79 -145 -86 -144 -86 12 -1 103 0 104 62
305 21 64 22 77 10 115 -7 23 -13 49 -13 57 -2 39 37 180 69 253 35 79 36 84
30 176 -7 121 20 305 68 463 19 64 35 127 35 141 0 28 -44 88 -80 109 -34 20
-98 225 -80 258 16 30 40 184 40 263 0 65 -1 68 -22 65 -20 -3 -23 -10 -26
-50 -4 -62 -13 -62 -64 0 -24 28 -27 40 -26 105 1 89 -9 137 -28 137 -10 0
-14 -14 -14 -52 l-1 -53 -22 26 c-12 14 -32 39 -43 55 -18 23 -25 26 -35 17
-10 -10 -2 -27 38 -88 28 -42 54 -93 58 -114 4 -24 24 -60 56 -99 27 -33 49
-69 49 -78 0 -9 -12 -41 -27 -70 l-26 -53 15 -88 c9 -48 15 -89 14 -90 -1 -1
-34 27 -73 62 -43 40 -77 79 -86 103 -9 22 -19 89 -22 153 -10 160 -18 185
-77 242 -69 68 -81 101 -73 201 4 44 14 90 21 101 8 12 23 57 34 100 11 44 32
97 46 118 33 51 50 109 65 224 18 144 -5 133 -40 -19 -17 -79 -19 -82 -30 -55
-15 38 -14 66 4 117 17 47 20 116 6 124 -5 4 -12 -8 -16 -26 -3 -18 -16 -60
-27 -92 -21 -59 -21 -60 -4 -148 l18 -89 -31 -40 c-18 -21 -38 -63 -46 -92
-25 -96 -56 -170 -67 -159 -8 8 -7 45 2 119 14 117 6 188 -20 188 -12 0 -14
-12 -12 -58 2 -31 -4 -100 -13 -152 l-17 -95 38 -117 c22 -67 52 -138 70 -163
53 -75 69 -125 69 -220 0 -72 -4 -95 -29 -149 -40 -89 -33 -104 69 -158 164
-87 226 -205 195 -370 -7 -37 -30 -122 -51 -187 -22 -66 -39 -127 -39 -138 0
-10 9 -35 20 -55 11 -21 20 -55 20 -76 0 -37 -23 -97 -38 -97 -10 0 -89 204
-107 278 -20 78 -52 154 -110 252 -52 88 -118 243 -152 355 -35 114 -34 202 1
342 34 134 31 150 -48 218 l-52 44 1 148 c1 89 7 169 15 201 14 52 13 54 -18
115 -56 110 -123 210 -192 287 -37 41 -72 84 -78 95 -6 13 -8 52 -5 100 l5 80
-49 75 c-55 84 -69 116 -78 175 -10 60 -15 75 -27 75 -11 0 -6 -93 8 -152 9
-39 -15 -37 -55 4 -17 17 -33 29 -37 26 -8 -8 65 -88 81 -88 6 0 31 -31 54
-70 40 -68 41 -71 35 -137 -5 -59 -3 -74 19 -115 13 -27 22 -48 20 -48 -36 0
-136 100 -153 154 -7 22 -33 59 -59 85 -91 90 -121 133 -121 172 0 39 -44 115
-87 149 -50 39 -61 10 -13 -37 34 -33 60 -90 60 -131 0 -33 44 -104 90 -147
34 -32 70 -102 70 -138 0 -25 78 -124 112 -143 13 -7 48 -20 79 -28 54 -15 59
-19 117 -102 34 -47 69 -110 78 -139 16 -50 16 -57 -1 -117 -19 -70 -22 -113
-10 -173 l7 -40 -62 60 c-90 87 -176 198 -248 319 -75 126 -83 128 -166 60
-31 -25 -64 -44 -73 -42 -10 2 -31 30 -48 63 -63 124 -176 369 -226 487 -28
68 -55 127 -60 132 -18 19 -20 -25 -4 -71 62 -173 105 -307 103 -315 -8 -23
-78 51 -109 115 -38 77 -64 106 -80 90 -19 -19 74 -182 123 -218 87 -64 125
-108 141 -165 16 -56 77 -160 116 -199 16 -16 34 -21 76 -21 86 0 116 -22 225
-164 35 -45 49 -71 42 -78 -12 -12 -148 -6 -266 11 -99 15 -105 10 -83 -61 9
-29 21 -78 27 -109 13 -67 66 -153 98 -157 31 -5 29 22 -7 89 -16 30 -32 70
-36 91 -6 30 -4 38 13 47 31 17 68 13 124 -11 45 -19 55 -20 97 -9 52 13 124
3 147 -21 7 -7 31 -47 53 -88 49 -92 62 -185 37 -265 -20 -63 -20 -103 -1
-185 8 -36 28 -144 46 -240 36 -199 51 -242 111 -310 110 -123 253 -394 300
-565 31 -113 32 -129 32 -285 -1 -142 -4 -176 -24 -245 -26 -89 -27 -98 -15
-242 4 -57 4 -103 0 -103 -11 0 -164 90 -170 100 -6 10 21 149 46 234 l21 68
-31 32 c-17 18 -31 36 -31 40 0 5 20 31 45 57 30 32 45 57 45 75 0 26 -65 200
-81 219 -15 15 -10 -68 6 -121 25 -83 21 -97 -40 -150 -30 -26 -55 -52 -55
-57 0 -5 14 -27 31 -49 31 -38 31 -40 21 -96 -14 -75 -40 -162 -41 -137 -1 11
-8 81 -17 155 -74 638 -307 1256 -672 1780 -246 353 -619 726 -972 972 -533
372 -1176 610 -1825 678 -175 18 -490 23 -654 11 -84 -7 -155 -11 -157 -9 -4
5 157 230 216 302 56 69 59 70 320 107 41 6 255 16 475 23 374 12 406 15 495
39 141 37 321 110 445 179 105 58 415 264 666 441 64 45 188 133 277 195 89
62 164 118 168 123 7 12 -14 39 -30 38 -6 -1 -83 -38 -171 -83z m-2010 -1440
c1094 -134 2044 -699 2691 -1602 144 -202 303 -492 407 -744 73 -178 79 -205
22 -95 -161 310 -333 542 -582 785 -163 160 -263 242 -433 354 -399 264 -798
414 -1290 483 -192 27 -596 24 -790 -6 -338 -52 -617 -137 -895 -272 -54 -27
-100 -47 -101 -46 -7 7 -24 251 -30 417 -7 209 6 426 31 535 23 96 64 184 89
190 115 27 663 27 881 1z m-1779 -233 c-31 -106 -77 -353 -100 -538 -23 -177
-38 -450 -45 -809 l-6 -320 -56 85 c-91 136 -213 355 -364 654 -123 245 -235
493 -235 521 0 16 254 170 411 250 93 47 376 172 392 173 5 1 6 -7 3 -16z
m-1680 -410 c29 -125 106 -393 135 -465 l19 -49 -112 -135 c-430 -516 -718
-1113 -844 -1747 -14 -73 -22 -93 -49 -120 l-32 -32 -6 -137 c-4 -105 -10
-146 -25 -181 -11 -24 -24 -47 -30 -50 -10 -7 -35 75 -54 175 -10 56 -10 58
21 96 17 22 31 44 31 49 0 5 -25 31 -55 57 -61 53 -65 67 -40 150 16 53 21
136 6 120 -16 -18 -81 -192 -81 -218 0 -18 15 -43 45 -75 25 -26 45 -52 45
-57 0 -4 -14 -22 -31 -40 l-31 -32 21 -68 c25 -85 52 -224 46 -234 -6 -10
-159 -100 -170 -100 -4 0 -4 46 0 103 12 144 11 153 -15 242 -20 69 -23 103
-24 245 0 156 1 172 32 285 47 171 190 442 300 565 60 68 75 111 111 310 18
96 38 204 46 240 19 82 19 122 -1 185 -25 80 -12 173 37 265 22 41 46 81 53
88 23 24 95 34 147 21 42 -11 52 -10 97 9 56 24 93 28 124 11 17 -9 19 -17 13
-47 -4 -21 -20 -61 -36 -91 -36 -67 -38 -94 -7 -89 32 4 85 90 98 157 6 31 18
80 27 109 22 71 16 76 -83 61 -118 -17 -254 -23 -266 -11 -7 7 7 33 42 78 109
142 139 164 225 164 42 0 60 5 76 21 37 37 99 142 114 192 16 53 43 102 52 94
2 -3 16 -54 29 -114z m4319 -253 c441 -66 842 -219 1195 -455 604 -403 1031
-993 1219 -1683 11 -40 15 -70 10 -66 -6 3 -42 28 -81 55 -68 46 -108 61 -108
39 0 -5 35 -44 78 -87 114 -114 117 -123 115 -328 -2 -93 0 -177 2 -186 3 -9
24 -29 47 -44 l41 -27 -6 -202 c-16 -530 -161 -1022 -428 -1455 l-52 -84 -32
89 c-103 283 -389 823 -643 1214 -182 280 -460 640 -670 866 -174 188 -500
477 -712 630 -112 81 -288 184 -393 230 l-108 47 29 31 c101 107 182 316 182
467 0 113 -34 169 -102 169 -46 0 -52 -3 -384 -190 -143 -81 -288 -162 -321
-178 l-60 -31 -94 20 c-115 24 -281 35 -330 21 l-36 -10 -47 167 c-50 182
-112 477 -122 589 l-7 70 90 46 c315 158 676 260 1046 296 154 15 522 4 682
-20z m-3178 -2230 c38 -58 89 -138 112 -179 l43 -74 -11 -111 c-6 -61 -18
-154 -26 -206 -20 -125 -19 -254 1 -313 16 -47 87 -139 208 -267 133 -142 202
-253 280 -457 53 -136 148 -580 161 -753 l6 -75 -100 -102 -100 -102 -64 77
c-363 440 -572 908 -659 1472 -32 211 -32 620 1 830 19 129 71 374 77 367 1
-1 33 -49 71 -107z m-2014 -772 c13 -455 86 -836 240 -1258 78 -213 212 -489
333 -684 24 -39 42 -72 39 -74 -9 -9 -172 91 -231 141 -142 120 -210 247 -234
438 -5 43 -19 98 -31 121 -30 59 -134 212 -174 257 -77 86 -228 307 -287 420
-30 59 -33 73 -33 150 0 83 2 89 44 166 35 65 46 98 57 173 16 102 29 135 82
200 37 45 167 162 181 162 4 0 11 -96 14 -212z m7862 90 c75 -83 92 -119 109
-230 11 -75 22 -108 57 -173 42 -77 44 -83 44 -166 0 -77 -3 -91 -33 -150 -59
-113 -210 -334 -287 -420 -40 -45 -144 -198 -174 -257 -12 -23 -26 -76 -31
-118 -20 -160 -52 -230 -148 -326 -42 -43 -80 -78 -84 -78 -21 0 -3 58 50 161
257 502 398 1059 419 1647 3 94 10 172 14 172 4 0 33 -28 64 -62z m-8807 -798
c6 -11 40 -34 74 -51 130 -65 197 -112 281 -195 48 -47 87 -89 87 -93 0 -16
-212 -189 -375 -307 l-29 -21 -7 -234 c-4 -129 -8 -283 -8 -343 l-1 -110 -35
34 -35 34 0 627 c0 605 3 679 29 679 3 0 12 -9 19 -20z m538 -452 c86 -129
119 -258 89 -349 -20 -60 -16 -105 21 -191 33 -80 133 -229 203 -304 134 -144
240 -271 241 -287 0 -10 -84 49 -160 113 -68 57 -171 134 -198 149 -30 16 -50
13 -117 -15 -64 -27 -201 -54 -273 -54 l-44 0 7 318 c5 265 10 330 26 395 26
105 123 297 150 297 4 0 29 -32 55 -72z m7859 -145 c-57 -143 -165 -373 -176
-373 -4 0 -11 17 -16 38 -8 34 -5 42 43 117 58 90 168 288 179 323 4 13 9 21
12 19 3 -3 -16 -59 -42 -124z m-8507 -455 l-3 -153 -35 70 -35 70 0 160 0 160
35 69 35 70 3 -146 c1 -81 1 -216 0 -300z"/>
<path d="M12101 5350 c-6 -28 -11 -59 -11 -69 0 -10 -18 -56 -39 -103 -42 -91
-130 -204 -187 -239 -26 -16 -34 -27 -34 -50 0 -35 9 -36 56 -4 40 28 56 30
85 15 18 -10 19 -27 19 -528 0 -284 -4 -533 -9 -552 -26 -100 -49 -143 -115
-209 -58 -58 -67 -72 -64 -99 l3 -30 65 49 c102 77 143 69 271 -53 70 -67 78
-86 86 -232 5 -81 12 -131 19 -133 11 -4 13 6 34 202 13 128 15 131 137 258
64 67 113 126 113 137 0 18 -4 17 -50 -10 -28 -17 -63 -30 -78 -30 -32 1 -93
54 -110 96 -17 43 -36 286 -28 362 4 37 10 204 15 372 5 168 12 313 16 323 17
41 124 -9 166 -77 11 -17 28 -61 40 -98 11 -38 26 -68 32 -68 7 0 19 17 26 38
33 95 145 212 204 212 23 0 22 37 -2 45 -17 5 -51 33 -106 85 -28 27 -53 135
-61 268 -8 137 -25 151 -42 35 -19 -133 -49 -215 -99 -272 -83 -95 -163 -111
-163 -33 0 43 -25 97 -71 154 -55 69 -89 159 -89 239 0 64 -15 63 -29 -1z"/>
<path d="M13186 5289 c-2 -8 -10 -43 -16 -79 -25 -131 -80 -221 -158 -258 -30
-14 -56 -31 -59 -39 -3 -7 19 -40 48 -74 61 -71 75 -95 96 -164 18 -60 61
-146 103 -209 41 -60 36 -77 -22 -96 -25 -8 -54 -22 -65 -31 -10 -9 -27 -20
-39 -23 -21 -6 -70 -61 -92 -103 -9 -15 -12 -126 -12 -375 l0 -354 31 -50 c18
-27 53 -75 79 -106 46 -55 48 -60 55 -138 9 -103 28 -102 36 1 7 94 39 158
116 234 60 59 168 145 181 145 10 0 52 -63 52 -78 0 -7 24 -39 54 -71 75 -82
96 -127 104 -224 4 -44 12 -82 18 -84 12 -4 24 49 24 112 0 43 15 105 27 114
5 3 17 23 28 43 11 20 57 80 103 133 54 63 82 105 82 121 0 34 -14 30 -50 -16
-17 -22 -37 -40 -43 -40 -6 0 -27 18 -47 40 l-37 41 -7 260 c-8 307 2 825 17
854 6 11 29 43 52 70 77 91 115 146 115 166 0 33 -27 21 -71 -31 -34 -41 -48
-50 -74 -50 -28 0 -42 12 -114 94 l-81 94 0 91 c0 81 -2 91 -18 91 -15 0 -20
-14 -31 -77 -28 -163 -83 -273 -137 -273 -13 0 -26 -4 -29 -10 -11 -17 -54
-11 -94 14 -47 30 -74 96 -97 241 -16 102 -20 118 -28 94z m245 -442 c53 -40
78 -159 79 -368 0 -166 -14 -180 -123 -114 -32 19 -61 35 -66 35 -16 0 -71 68
-95 119 -37 77 -37 195 -1 257 14 23 41 51 62 62 43 23 119 28 144 9z m-39
-558 c32 -12 65 -34 83 -56 l30 -36 0 -241 0 -241 -35 -44 c-105 -131 -214
-133 -241 -3 -8 41 -10 127 -4 307 7 264 9 277 59 317 27 23 44 22 108 -3z"/>
<path d="M11562 5150 c-18 -11 -46 -20 -62 -20 -33 0 -37 -5 -146 -175 -70
-110 -169 -249 -198 -278 -23 -22 -25 -51 -37 -526 -8 -319 -15 -443 -25 -466
-7 -18 -42 -59 -78 -92 -62 -56 -96 -106 -83 -119 3 -3 20 4 36 16 55 38 90
37 147 -7 53 -40 120 -112 143 -152 8 -14 16 -69 19 -128 5 -108 21 -124 22
-23 1 58 19 145 41 196 16 35 74 104 88 104 5 0 11 6 14 13 18 49 22 -75 20
-610 -1 -536 -3 -607 -17 -622 -22 -24 -20 -105 5 -216 11 -49 24 -142 29
-205 9 -135 9 -132 21 -100 6 14 14 108 19 210 4 102 14 200 20 219 10 26 10
44 0 85 -9 38 -11 209 -8 696 3 589 5 648 21 677 21 39 22 73 2 99 -12 16 -14
109 -15 635 l0 616 31 60 c21 42 29 70 27 96 l-3 37 -33 -20z m-92 -850 l0
-640 -24 0 c-15 0 -33 11 -47 28 l-22 27 6 525 c6 513 15 675 41 692 6 4 19 8
29 8 16 0 17 -37 17 -640z"/>
<path d="M6134 4945 c-10 -26 141 -175 178 -175 22 0 4 45 -29 73 -20 18 -58
51 -83 75 -52 46 -58 49 -66 27z"/>
<path d="M7149 4923 c-28 -7 -43 -47 -30 -84 13 -37 14 -632 2 -1009 l-8 -235
31 -32 c31 -34 60 -42 69 -20 2 7 1 37 -4 67 -6 31 -8 331 -7 679 3 616 3 624
-17 630 -11 4 -27 6 -36 4z"/>
<path d="M8480 4181 l0 -751 -27 0 c-16 0 -45 -3 -65 -6 l-38 -7 0 -261 c0
-228 2 -270 19 -331 49 -173 150 -329 275 -423 37 -28 160 -32 170 -6 11 28 7
33 -38 53 -61 26 -121 92 -146 157 -19 52 -20 77 -20 439 0 211 -4 386 -8 389
-24 14 -29 -22 -36 -226 -8 -270 -17 -398 -27 -398 -4 0 -18 30 -30 68 -20 60
-23 92 -26 310 l-4 242 44 0 44 0 6 708 c6 670 5 708 -12 732 -10 14 -32 33
-50 43 l-31 19 0 -751z"/>
<path d="M7913 4903 c-4 -9 0 -46 7 -82 10 -50 14 -214 17 -670 l4 -604 30 28
29 29 0 632 c0 624 0 632 -21 658 -23 29 -56 34 -66 9z"/>
<path d="M8130 4842 l-55 -37 -3 -579 -2 -579 31 -48 c17 -27 28 -53 24 -59
-3 -6 -28 -22 -55 -35 -49 -25 -88 -75 -75 -95 4 -6 23 -8 43 -5 35 5 180 13
265 14 l37 1 0 694 0 695 -44 35 c-57 48 -93 47 -166 -2z"/>
<path d="M5788 4768 c-14 -12 -15 -32 -6 -178 5 -91 11 -171 13 -177 3 -7 18
-13 35 -13 l30 0 0 190 0 190 -28 0 c-16 0 -35 -6 -44 -12z"/>
<path d="M5610 4345 c0 -8 -13 -39 -30 -68 -32 -57 -39 -97 -17 -97 11 0 82
45 136 86 5 4 -72 94 -81 94 -4 0 -8 -7 -8 -15z"/>
<path d="M5753 4284 c-24 -9 -43 -19 -43 -23 0 -12 94 -98 125 -114 79 -42
380 -145 391 -135 10 11 -16 242 -29 250 -30 20 -93 28 -242 33 -130 4 -168 2
-202 -11z"/>
<path d="M6372 4083 l3 -126 39 -14 c22 -7 41 -11 44 -8 2 2 1 65 -3 140 l-7
135 -39 0 -40 0 3 -127z"/>
<path d="M10721 4156 c-26 -31 -149 -83 -238 -101 l-33 -7 0 -179 c0 -205 0
-206 -79 -140 -66 55 -107 73 -179 79 -67 5 -111 -5 -200 -44 -29 -13 -57 -24
-62 -24 -38 0 -154 -163 -172 -242 -10 -46 -2 -138 13 -138 11 0 29 34 29 57
0 40 22 92 56 131 34 41 38 42 95 42 59 0 124 -23 157 -56 7 -8 19 -14 25 -14
15 0 69 -50 100 -93 32 -44 55 -126 62 -222 4 -44 8 -82 11 -85 11 -11 22 27
29 103 5 61 13 89 31 116 13 20 24 40 24 45 0 13 112 130 133 138 9 4 17 12
17 18 0 5 6 10 13 10 7 0 24 10 37 23 37 33 124 31 177 -6 21 -14 53 -30 71
-33 29 -6 32 -4 32 18 0 14 -14 49 -30 79 -81 143 -90 179 -99 388 -5 136 -8
152 -20 137z"/>
<path d="M6228 3834 c-2 -106 -7 -169 -14 -171 -5 -2 -39 22 -74 52 -77 67
-116 79 -232 72 -77 -4 -94 -9 -155 -42 -97 -55 -139 -91 -173 -151 -46 -82
-65 -160 -50 -212 15 -58 32 -49 45 24 30 158 122 202 273 129 137 -65 201
-161 217 -325 13 -138 27 -144 45 -22 15 103 39 153 114 244 60 71 128 122
188 140 34 10 44 8 106 -20 37 -18 83 -35 100 -38 32 -7 33 -6 26 22 -4 16
-29 72 -55 126 -27 54 -56 129 -65 168 -11 49 -22 73 -36 81 -11 6 -21 9 -23
7 -2 -2 1 -52 6 -111 5 -60 7 -113 3 -118 -3 -5 -25 -9 -48 -9 -54 0 -56 4
-56 162 l0 117 -57 17 c-32 9 -64 19 -70 21 -10 4 -13 -35 -15 -163z m-206
-190 c63 -33 155 -134 121 -134 -3 0 -29 17 -57 38 -28 22 -67 47 -86 57 -46
23 -45 22 -30 40 15 19 14 19 52 -1z"/>
<path d="M6849 3551 c-101 -100 -98 -129 7 -76 27 14 62 25 77 25 59 0 165
-99 193 -181 8 -21 19 -82 26 -134 17 -139 32 -118 36 47 l3 135 49 55 49 55
-72 17 c-132 31 -182 50 -236 88 -30 21 -57 37 -60 37 -3 -1 -36 -32 -72 -68z"/>
<path d="M9517 3573 c-37 -28 -70 -40 -153 -59 -59 -13 -126 -24 -150 -24 -51
0 -56 -13 -14 -35 17 -9 30 -20 30 -25 0 -5 14 -25 30 -44 35 -39 60 -144 60
-247 0 -63 1 -65 31 -49 17 10 19 23 19 143 l1 132 105 123 c57 67 101 122 97
121 -4 0 -29 -16 -56 -36z"/>
<path d="M9070 3484 c-14 -8 -17 -13 -7 -10 10 3 33 6 50 6 24 0 28 3 17 10
-20 13 -31 12 -60 -6z"/>
<path d="M8950 3460 c0 -13 30 -13 50 0 11 7 7 10 -17 10 -18 0 -33 -4 -33
-10z"/>
<path d="M7856 3334 c14 -42 27 -110 31 -151 5 -59 9 -73 22 -71 19 4 29 37
30 103 1 44 13 104 35 173 7 21 6 22 -67 22 l-75 0 24 -76z"/>
</g>
</svg>
